<svg xmlns="http://www.w3.org/2000/svg" width="15" height="17" viewBox="0 0 15 17" fill="none">
  <path d="M1.65684 16.5684C1.20121 16.5684 0.81116 16.4061 0.486696 16.0817C0.162232 15.7572 0 15.3672 0 14.9115V3.31367C0 2.85804 0.162232 2.468 0.486696 2.14353C0.81116 1.81907 1.20121 1.65684 1.65684 1.65684H2.48525V0H4.14209V1.65684H10.7694V0H12.4263V1.65684H13.2547C13.7103 1.65684 14.1004 1.81907 14.4248 2.14353C14.7493 2.468 14.9115 2.85804 14.9115 3.31367V14.9115C14.9115 15.3672 14.7493 15.7572 14.4248 16.0817C14.1004 16.4061 13.7103 16.5684 13.2547 16.5684H1.65684ZM1.65684 14.9115H13.2547V6.62735H1.65684V14.9115ZM1.65684 4.97051H13.2547V3.31367H1.65684V4.97051ZM7.45576 9.94102C7.22105 9.94102 7.0243 9.86163 6.86552 9.70285C6.70674 9.54407 6.62735 9.34732 6.62735 9.1126C6.62735 8.87788 6.70674 8.68113 6.86552 8.52235C7.0243 8.36357 7.22105 8.28418 7.45576 8.28418C7.69048 8.28418 7.88723 8.36357 8.04601 8.52235C8.20479 8.68113 8.28418 8.87788 8.28418 9.1126C8.28418 9.34732 8.20479 9.54407 8.04601 9.70285C7.88723 9.86163 7.69048 9.94102 7.45576 9.94102ZM4.14209 9.94102C3.90737 9.94102 3.71062 9.86163 3.55184 9.70285C3.39306 9.54407 3.31367 9.34732 3.31367 9.1126C3.31367 8.87788 3.39306 8.68113 3.55184 8.52235C3.71062 8.36357 3.90737 8.28418 4.14209 8.28418C4.37681 8.28418 4.57356 8.36357 4.73234 8.52235C4.89112 8.68113 4.97051 8.87788 4.97051 9.1126C4.97051 9.34732 4.89112 9.54407 4.73234 9.70285C4.57356 9.86163 4.37681 9.94102 4.14209 9.94102ZM10.7694 9.94102C10.5347 9.94102 10.338 9.86163 10.1792 9.70285C10.0204 9.54407 9.94102 9.34732 9.94102 9.1126C9.94102 8.87788 10.0204 8.68113 10.1792 8.52235C10.338 8.36357 10.5347 8.28418 10.7694 8.28418C11.0042 8.28418 11.2009 8.36357 11.3597 8.52235C11.5185 8.68113 11.5979 8.87788 11.5979 9.1126C11.5979 9.34732 11.5185 9.54407 11.3597 9.70285C11.2009 9.86163 11.0042 9.94102 10.7694 9.94102ZM7.45576 13.2547C7.22105 13.2547 7.0243 13.1753 6.86552 13.0165C6.70674 12.8577 6.62735 12.661 6.62735 12.4263C6.62735 12.1916 6.70674 11.9948 6.86552 11.836C7.0243 11.6772 7.22105 11.5979 7.45576 11.5979C7.69048 11.5979 7.88723 11.6772 8.04601 11.836C8.20479 11.9948 8.28418 12.1916 8.28418 12.4263C8.28418 12.661 8.20479 12.8577 8.04601 13.0165C7.88723 13.1753 7.69048 13.2547 7.45576 13.2547ZM4.14209 13.2547C3.90737 13.2547 3.71062 13.1753 3.55184 13.0165C3.39306 12.8577 3.31367 12.661 3.31367 12.4263C3.31367 12.1916 3.39306 11.9948 3.55184 11.836C3.71062 11.6772 3.90737 11.5979 4.14209 11.5979C4.37681 11.5979 4.57356 11.6772 4.73234 11.836C4.89112 11.9948 4.97051 12.1916 4.97051 12.4263C4.97051 12.661 4.89112 12.8577 4.73234 13.0165C4.57356 13.1753 4.37681 13.2547 4.14209 13.2547ZM10.7694 13.2547C10.5347 13.2547 10.338 13.1753 10.1792 13.0165C10.0204 12.8577 9.94102 12.661 9.94102 12.4263C9.94102 12.1916 10.0204 11.9948 10.1792 11.836C10.338 11.6772 10.5347 11.5979 10.7694 11.5979C11.0042 11.5979 11.2009 11.6772 11.3597 11.836C11.5185 11.9948 11.5979 12.1916 11.5979 12.4263C11.5979 12.661 11.5185 12.8577 11.3597 13.0165C11.2009 13.1753 11.0042 13.2547 10.7694 13.2547Z" fill="url(#paint0_linear_37_12245)"/>
  <defs>
    <linearGradient id="paint0_linear_37_12245" x1="5.62749" y1="19.7234" x2="11.1062" y2="-8.36994" gradientUnits="userSpaceOnUse">
      <stop stop-color="#AFAFFF"/>
      <stop offset="0.34375" stop-color="#FF8FB8"/>
      <stop offset="0.723958" stop-color="#FFBB9B"/>
    </linearGradient>
  </defs>
</svg>