<svg xmlns="http://www.w3.org/2000/svg" width="17" height="17" viewBox="0 0 17 17" fill="none">
<path d="M11.018 12.1777L12.1777 11.018L9.1126 7.95282V4.14209H7.45576V8.61555L11.018 12.1777ZM8.28418 16.5684C7.1382 16.5684 6.06126 16.3509 5.05335 15.916C4.04544 15.4811 3.1687 14.8908 2.42312 14.1452C1.67755 13.3997 1.0873 12.5229 0.652379 11.515C0.21746 10.5071 0 9.43016 0 8.28418C0 7.1382 0.21746 6.06126 0.652379 5.05335C1.0873 4.04544 1.67755 3.1687 2.42312 2.42312C3.1687 1.67755 4.04544 1.0873 5.05335 0.652379C6.06126 0.21746 7.1382 0 8.28418 0C9.43016 0 10.5071 0.21746 11.515 0.652379C12.5229 1.0873 13.3997 1.67755 14.1452 2.42312C14.8908 3.1687 15.4811 4.04544 15.916 5.05335C16.3509 6.06126 16.5684 7.1382 16.5684 8.28418C16.5684 9.43016 16.3509 10.5071 15.916 11.515C15.4811 12.5229 14.8908 13.3997 14.1452 14.1452C13.3997 14.8908 12.5229 15.4811 11.515 15.916C10.5071 16.3509 9.43016 16.5684 8.28418 16.5684ZM8.28418 14.9115C10.1205 14.9115 11.6841 14.2661 12.9751 12.9751C14.2661 11.6841 14.9115 10.1205 14.9115 8.28418C14.9115 6.44786 14.2661 4.88422 12.9751 3.59326C11.6841 2.30231 10.1205 1.65684 8.28418 1.65684C6.44786 1.65684 4.88422 2.30231 3.59326 3.59326C2.30231 4.88422 1.65684 6.44786 1.65684 8.28418C1.65684 10.1205 2.30231 11.6841 3.59326 12.9751C4.88422 14.2661 6.44786 14.9115 8.28418 14.9115Z" fill="url(#paint0_linear_37_12242)"/>
<defs>
<linearGradient id="paint0_linear_37_12242" x1="6.25277" y1="19.7234" x2="11.2182" y2="-8.56688" gradientUnits="userSpaceOnUse">
<stop stop-color="#AFAFFF"/>
<stop offset="0.34375" stop-color="#FF8FB8"/>
<stop offset="0.723958" stop-color="#FFBB9B"/>
</linearGradient>
</defs>
</svg>