<svg width="42" height="40" viewBox="0 0 42 40" fill="none" xmlns="http://www.w3.org/2000/svg">
<path fill-rule="evenodd" clip-rule="evenodd" d="M17.5192 0.979054C19.7837 0.0491604 21.948 0.209445 23.4666 0.625613C24.3383 0.864523 25.0743 1.15988 26.2016 2.07139C27.3288 2.9828 27.9175 4.30361 27.5048 4.22407C27.4687 4.21706 27.433 4.21016 27.3974 4.20325L27.3954 4.20293C26.797 4.08719 26.2668 3.98463 25.4909 3.91451C24.6681 3.84011 23.5341 3.93576 23.1121 3.97908C21.1218 4.18368 19.8238 4.97348 18.8206 5.58612C17.0991 6.63745 15.3674 8.32632 14.0263 10.1257C12.8676 11.6802 11.6175 13.8144 10.6359 16.4061C10.1197 17.7687 9.75127 19.3163 9.75127 20.3967C9.75127 20.961 9.79472 21.8263 10.2284 22.6769C11.029 21.1802 12.3891 18.6694 13.4014 16.9676C15.0505 14.1953 17.3277 10.6457 20.1445 8.92398C23.2314 7.03722 27.1329 7.01943 30.6147 8.97066C32.6979 10.138 33.7208 11.2942 35.6211 13.7308C36.7564 15.1866 37.5457 16.6363 38.3062 18.0334C38.4632 18.3218 38.619 18.6078 38.7763 18.8913C39.1008 19.4761 39.778 20.9134 40.5086 23.3796C41.2393 25.8459 41.3465 28.6136 41.1595 30.0782C40.8569 32.4467 39.6317 34.1858 38.5011 35.2543C37.8521 35.8676 37.2206 36.3386 35.8438 36.8304C34.4668 37.3223 32.9941 37.1567 33.2715 36.8496C33.2962 36.8221 33.3206 36.795 33.345 36.7681C33.7475 36.323 34.104 35.9286 34.5546 35.3115C35.0323 34.657 35.514 33.6559 35.6863 33.2796C36.499 31.5042 36.4433 30.0182 36.3983 28.8685C36.321 26.8957 35.68 24.5957 34.7452 22.5687C33.9376 20.8173 32.6584 18.6995 30.837 16.5785C29.8791 15.4633 28.6826 14.3797 27.7187 13.8395C27.2348 13.5684 26.4829 13.1919 25.5589 13.1091C26.4914 14.5261 28.0678 16.9488 29.0878 18.6636C30.7368 21.436 32.7652 25.125 32.8928 28.3537C33.0328 31.892 31.098 35.1805 27.6162 37.1317C25.533 38.2991 23.99 38.5808 20.8659 38.96C18.9994 39.1865 17.3113 39.125 15.6844 39.0658C15.3487 39.0535 15.0155 39.0415 14.684 39.032C13.9999 39.0124 12.379 38.863 9.81326 38.244C7.24755 37.6251 4.72453 36.3314 3.51127 35.4419C1.54943 34.0032 0.610241 32.1038 0.222284 30.6192C-0.000433035 29.7669 -0.104886 29.0007 0.14471 27.5973C0.394317 26.194 1.27838 25.0387 1.4138 25.4256C1.42577 25.46 1.43773 25.4941 1.44959 25.528C1.6456 26.089 1.81919 26.5858 2.14458 27.2731C2.48959 28.002 3.14189 28.9073 3.39159 29.2404C4.56927 30.8112 5.92291 31.5074 6.97121 32.0445C8.76992 32.9658 11.1425 33.5771 13.4185 33.8047C15.3849 34.0015 17.9141 33.9852 20.7172 33.5146C22.1912 33.2671 23.7561 32.803 24.7201 32.2628C25.2337 31.9749 26.0044 31.4923 26.5487 30.6731C24.8387 30.7484 21.7919 30.8679 19.7009 30.8679C16.4028 30.8679 12.0973 30.7284 9.15267 29.2214C5.92582 27.5699 3.95914 24.2992 3.95914 20.3967C3.95914 18.062 4.47924 16.6239 5.70307 13.8083C6.43418 12.126 7.33315 10.7377 8.19935 9.39983C8.37811 9.12376 8.55558 8.84979 8.7297 8.57581C9.08927 8.01058 10.0331 6.72274 11.8681 4.87543C13.7032 3.02811 16.1189 1.55406 17.5192 0.979054ZM26.4211 25.3702C26.2481 24.99 26.0422 24.5898 25.8 24.1687C23.6672 20.4605 21.7847 17.3406 20.8077 15.7389C20.5256 16.1042 20.2416 16.5159 19.957 16.9788C17.77 20.5361 15.9635 23.6133 15.003 25.2679C15.442 25.3155 15.9177 25.3444 16.433 25.3516C20.7859 25.4125 24.4951 25.3905 26.4211 25.3702Z" fill="url(#paint0_linear_640_470)"/>
<defs>
<linearGradient id="paint0_linear_640_470" x1="-3.69834" y1="14.5121" x2="12.1955" y2="43.5845" gradientUnits="userSpaceOnUse">
<stop stop-color="#A79DFF"/>
<stop offset="1" stop-color="#6B70ED"/>
</linearGradient>
</defs>
</svg>
