<svg width="19" height="19" viewBox="0 0 19 19" fill="none" xmlns="http://www.w3.org/2000/svg">
<g id="youtube" clip-path="url(#clip0_37_12218)">
<g id="Layer_1-2">
<g id="Group">
<path id="Vector" d="M14.1655 0.767044C16.4099 0.767044 18.2358 2.59295 18.2358 4.83733V13.5718C18.2358 15.8161 16.4099 17.642 14.1655 17.642H5.43108C3.1867 17.642 1.36079 15.8161 1.36079 13.5717V4.83733C1.36079 2.59295 3.1867 0.767044 5.43108 0.767044H14.1655ZM14.1655 0H5.43108C2.7595 0 0.59375 2.16575 0.59375 4.83733V13.5717C0.59375 16.2433 2.7595 18.4091 5.43108 18.4091H14.1655C16.8371 18.4091 19.0028 16.2433 19.0028 13.5718V4.83733C19.0028 2.16575 16.8371 0 14.1655 0Z" fill="#F6F6F6"/>
</g>
</g>
<g id="share">
<mask id="mask0_37_12218" style="mask-type:alpha" maskUnits="userSpaceOnUse" x="2" y="2" width="15" height="15">
<rect id="Bounding box" x="2.89844" y="2.84375" width="13.2654" height="13.2654" fill="#D9D9D9"/>
</mask>
<g mask="url(#mask0_37_12218)">
<path id="share_2" d="M12.8455 15.0076C12.3849 15.0076 11.9934 14.8464 11.671 14.524C11.3486 14.2015 11.1874 13.81 11.1874 13.3494C11.1874 13.2849 11.192 13.2181 11.2012 13.1491C11.2104 13.08 11.2242 13.0178 11.2426 12.9625L7.34594 10.6963C7.18933 10.8345 7.0143 10.9428 6.82085 11.0211C6.6274 11.0994 6.42473 11.1385 6.21286 11.1385C5.75225 11.1385 5.36074 10.9773 5.03832 10.6549C4.7159 10.3325 4.55469 9.94096 4.55469 9.48036C4.55469 9.01975 4.7159 8.62824 5.03832 8.30582C5.36074 7.9834 5.75225 7.82219 6.21286 7.82219C6.42473 7.82219 6.6274 7.86134 6.82085 7.93964C7.0143 8.01794 7.18933 8.12618 7.34594 8.26436L11.2426 5.9982C11.2242 5.94293 11.2104 5.88075 11.2012 5.81166C11.192 5.74257 11.1874 5.67578 11.1874 5.61129C11.1874 5.15069 11.3486 4.75918 11.671 4.43676C11.9934 4.11434 12.3849 3.95312 12.8455 3.95312C13.3061 3.95312 13.6976 4.11434 14.0201 4.43676C14.3425 4.75918 14.5037 5.15069 14.5037 5.61129C14.5037 6.0719 14.3425 6.46341 14.0201 6.78583C13.6976 7.10825 13.3061 7.26946 12.8455 7.26946C12.6337 7.26946 12.431 7.23031 12.2375 7.15201C12.0441 7.07371 11.8691 6.96547 11.7125 6.82729L7.81575 9.09345C7.83418 9.14872 7.848 9.2109 7.85721 9.27999C7.86642 9.34908 7.87103 9.41587 7.87103 9.48036C7.87103 9.54484 7.86642 9.61163 7.85721 9.68072C7.848 9.74981 7.83418 9.81199 7.81575 9.86726L11.7125 12.1334C11.8691 11.9952 12.0441 11.887 12.2375 11.8087C12.431 11.7304 12.6337 11.6912 12.8455 11.6912C13.3061 11.6912 13.6976 11.8525 14.0201 12.1749C14.3425 12.4973 14.5037 12.8888 14.5037 13.3494C14.5037 13.81 14.3425 14.2015 14.0201 14.524C13.6976 14.8464 13.3061 15.0076 12.8455 15.0076ZM12.8455 6.16402C13.0021 6.16402 13.1334 6.11105 13.2393 6.00511C13.3453 5.89917 13.3983 5.7679 13.3983 5.61129C13.3983 5.45469 13.3453 5.32342 13.2393 5.21748C13.1334 5.11154 13.0021 5.05857 12.8455 5.05857C12.6889 5.05857 12.5577 5.11154 12.4517 5.21748C12.3458 5.32342 12.2928 5.45469 12.2928 5.61129C12.2928 5.7679 12.3458 5.89917 12.4517 6.00511C12.5577 6.11105 12.6889 6.16402 12.8455 6.16402ZM6.21286 10.0331C6.36946 10.0331 6.50073 9.98011 6.60667 9.87417C6.71261 9.76823 6.76558 9.63696 6.76558 9.48036C6.76558 9.32375 6.71261 9.19248 6.60667 9.08654C6.50073 8.9806 6.36946 8.92763 6.21286 8.92763C6.05625 8.92763 5.92498 8.9806 5.81904 9.08654C5.7131 9.19248 5.66013 9.32375 5.66013 9.48036C5.66013 9.63696 5.7131 9.76823 5.81904 9.87417C5.92498 9.98011 6.05625 10.0331 6.21286 10.0331ZM12.8455 13.9021C13.0021 13.9021 13.1334 13.8492 13.2393 13.7432C13.3453 13.6373 13.3983 13.506 13.3983 13.3494C13.3983 13.1928 13.3453 13.0615 13.2393 12.9556C13.1334 12.8497 13.0021 12.7967 12.8455 12.7967C12.6889 12.7967 12.5577 12.8497 12.4517 12.9556C12.3458 13.0615 12.2928 13.1928 12.2928 13.3494C12.2928 13.506 12.3458 13.6373 12.4517 13.7432C12.5577 13.8492 12.6889 13.9021 12.8455 13.9021Z" fill="#F6F6F6"/>
</g>
</g>
</g>
<defs>
<clipPath id="clip0_37_12218">
<rect width="18.4091" height="18.4091" fill="white" transform="translate(0.59375)"/>
</clipPath>
</defs>
</svg>
